<svg width="38" height="45" viewBox="0 0 38 45" fill="none" xmlns="http://www.w3.org/2000/svg">
<rect x="0.272461" width="37.0909" height="45" fill="#292929"/>
<path d="M26.9998 16L27.4736 16.5814C27.6484 16.439 27.7498 16.2255 27.7498 16C27.7498 15.7745 27.6484 15.561 27.4736 15.4186L26.9998 16ZM22.5645 11.4186C22.2434 11.1569 21.771 11.2051 21.5093 11.5262C21.2477 11.8474 21.2959 12.3198 21.617 12.5814L22.5645 11.4186ZM21.617 19.4186C21.2959 19.6802 21.2477 20.1526 21.5093 20.4738C21.771 20.7949 22.2434 20.8431 22.5645 20.5814L21.617 19.4186ZM11.1816 16.75H26.9998V15.25H11.1816V16.75ZM27.4736 15.4186L22.5645 11.4186L21.617 12.5814L26.5261 16.5814L27.4736 15.4186ZM26.5261 15.4186L21.617 19.4186L22.5645 20.5814L27.4736 16.5814L26.5261 15.4186Z" fill="white"/>
<path d="M11.1818 29L10.7081 29.5814C10.5333 29.439 10.4318 29.2255 10.4318 29C10.4318 28.7745 10.5333 28.561 10.7081 28.4186L11.1818 29ZM15.6172 24.4186C15.9383 24.1569 16.4107 24.2051 16.6723 24.5262C16.934 24.8474 16.8858 25.3198 16.5647 25.5814L15.6172 24.4186ZM16.5647 32.4186C16.8858 32.6802 16.934 33.1526 16.6723 33.4738C16.4107 33.7949 15.9383 33.8431 15.6172 33.5814L16.5647 32.4186ZM27 29.75H11.1818V28.25H27V29.75ZM10.7081 28.4186L15.6172 24.4186L16.5647 25.5814L11.6556 29.5814L10.7081 28.4186ZM11.6556 28.4186L16.5647 32.4186L15.6172 33.5814L10.7081 29.5814L11.6556 28.4186Z" fill="white"/>
</svg>
