<svg width="43" height="36" viewBox="0 0 43 36" fill="none" xmlns="http://www.w3.org/2000/svg">
<path d="M6.30646 6.47137C6.29787 6.48153 6.28947 6.49163 6.28125 6.50167C6.28815 6.49131 6.29658 6.48121 6.30646 6.47137C6.89634 5.7738 8.34252 4.83331 9.61926 6.44224C9.35122 6.10445 6.69689 6.0826 6.30646 6.47137Z" fill="#292929"/>
<path d="M4.56743 12.7055C6.91271 10.7594 8.34077 10.7581 9.90482 10.5837C8.23909 13.0252 9.67998 15.0501 10.6086 15.7573H2.63184C4.38827 13.4528 5.22234 13.2287 6.50293 12.7055H4.56743Z" fill="#292929"/>
<path d="M17.8133 15.7573C14.9925 12.9131 17.3576 9.39676 18.8927 7.99414C16.5325 12.5306 19.4284 15.0598 21.1713 15.7573H17.8133Z" fill="#292929"/>
<path d="M13.3377 15.8473C9.88598 12.085 12.1744 9.14919 13.767 8.2041C11.466 11.7684 13.7703 14.8572 15.1921 15.8473H13.3377Z" fill="#292929"/>
<path d="M30.4269 6.01929C31.0413 6.97173 31.4861 9.25604 29.6172 10.0469C32.1857 10.0064 36.197 8.99874 30.4269 6.01929Z" fill="#292929"/>
<path d="M19.3291 7.1947C20.6444 5.01162 24.4343 1.3219 28.6936 5.059C25.6233 4.59874 21.0004 5.27679 19.3291 7.1947Z" fill="#292929"/>
<path d="M20.2705 9.89557L22.9444 7.2937V9.048C24.8919 7.06502 28.3941 7.2937 32.2895 11.3725C27.1704 9.383 23.2415 9.8857 20.2705 9.89557Z" fill="#292929"/>
<path d="M38.2069 15.0782C43.327 15.2851 40.0433 12.2274 37.7002 10.7063C44.8955 13.6147 43.2943 17.1387 41.3683 19.6663C41.6684 16.8293 38.8069 15.6046 38.2069 15.0782Z" fill="#292929"/>
<path d="M26.3055 28.2605C26.3055 30.3209 23.793 31.7354 21.7285 31.7354C27.9872 31.9709 33.9435 34.6264 36.2253 36L41.4408 33.6453V28.2605C38.7654 37.5711 31.732 29.5126 26.3055 28.2605Z" fill="#292929"/>
<path d="M14.3106 5.81449C13.4246 2.30226 12.0473 1.91242 10.6711 1.26654C13.1046 0.404789 16.9194 1.47147 18.5227 2.11254L14.3106 5.81449Z" fill="#292929"/>
<path d="M17.9362 6.39452C17.7684 4.52023 18.4663 0.882246 23.1607 3.28263C21.6214 3.76389 20.0028 4.36049 17.9362 6.39452Z" fill="#292929"/>
<path d="M3.0733 9.82957C-4.27032 4.04401 2.90221 -4.03031 10.4127 2.32421C-0.38385 -1.21927 1.93133 8.74289 6.60207 9.27128C5.0402 9.71888 3.09728 11.789 2.32105 12.7681L3.0733 9.82957Z" fill="#292929"/>
<path d="M10.413 6.1808C9.77958 5.06474 8.45546 2.98156 5.78223 4.27025C8.08985 4.20934 9.7498 5.31312 10.413 6.1808Z" fill="#292929"/>
<path d="M2.24902 18.739C2.51496 18.7473 2.87132 18.7556 3.31809 18.7639C3.77551 18.7723 4.2276 18.7764 4.67438 18.7764C5.18498 18.7764 5.67962 18.7723 6.15831 18.7639C6.637 18.7556 6.9774 18.7515 7.17951 18.7515C8.1688 18.7515 8.98789 18.8387 9.63678 19.0133C10.2963 19.1795 10.7856 19.4246 11.1048 19.7487C11.4345 20.0728 11.5994 20.4634 11.5994 20.9205C11.5994 21.203 11.5249 21.4897 11.376 21.7806C11.2271 22.0631 10.9718 22.3291 10.6101 22.5784C10.2591 22.8194 9.77507 23.0147 9.15809 23.1642C8.54112 23.3055 7.76458 23.3762 6.82847 23.3762H5.29667V23.1268H6.66891C7.29653 23.1268 7.7699 23.0354 8.08902 22.8526C8.41878 22.6615 8.64217 22.4122 8.75919 22.1047C8.88684 21.7889 8.95066 21.4399 8.95066 21.0576C8.95066 20.4011 8.80174 19.8941 8.50388 19.5368C8.20603 19.1711 7.69543 18.9883 6.97208 18.9883C6.55722 18.9883 6.28596 19.059 6.15831 19.2002C6.0413 19.3415 5.98279 19.6282 5.98279 20.0603V26.2432C5.98279 26.5424 6.00939 26.7668 6.06257 26.9163C6.1264 27.0659 6.24341 27.1657 6.41361 27.2155C6.58381 27.2654 6.83911 27.2986 7.17951 27.3152V27.5645C6.8923 27.5479 6.53062 27.5396 6.09449 27.5396C5.65835 27.5313 5.21689 27.5271 4.77012 27.5271C4.25951 27.5271 3.77551 27.5313 3.31809 27.5396C2.87132 27.5396 2.51496 27.5479 2.24902 27.5645V27.3152C2.58942 27.2986 2.84472 27.2654 3.01492 27.2155C3.18513 27.1657 3.29682 27.0659 3.35001 26.9163C3.41383 26.7668 3.44574 26.5424 3.44574 26.2432V20.0603C3.44574 19.7529 3.41383 19.5285 3.35001 19.3872C3.29682 19.2376 3.17981 19.1379 2.99897 19.088C2.82877 19.0299 2.57879 18.9966 2.24902 18.9883V18.739ZM5.26476 23.1642C5.72217 23.1726 6.11576 23.1892 6.44552 23.2141C6.78593 23.239 7.08378 23.264 7.33908 23.2889C7.59438 23.3055 7.82308 23.318 8.0252 23.3263C8.99321 23.3928 9.70592 23.5548 10.1633 23.8124C10.6314 24.0701 10.9346 24.4565 11.0728 24.9717L11.4398 26.2557C11.5356 26.5881 11.6366 26.8208 11.743 26.9537C11.8494 27.0867 12.0036 27.1532 12.2057 27.1532C12.344 27.1449 12.4557 27.1199 12.5408 27.0784C12.6366 27.0285 12.7376 26.9579 12.844 26.8665L13.0674 27.0161C12.7802 27.2737 12.4717 27.4565 12.1419 27.5645C11.8122 27.6809 11.4132 27.7391 10.9452 27.7391C10.3708 27.7391 9.8974 27.6435 9.52509 27.4524C9.15277 27.2612 8.90811 26.908 8.7911 26.3928L8.50388 25.1463C8.42942 24.7972 8.339 24.4939 8.23263 24.2363C8.12625 23.9703 7.97733 23.7626 7.78585 23.613C7.60501 23.4551 7.34971 23.3762 7.01995 23.3762H5.29667L5.26476 23.1642Z" fill="#292929"/>
<path d="M22.6166 18.739C22.5741 19.1628 22.5422 19.57 22.5209 19.9606C22.5103 20.3512 22.505 20.6504 22.505 20.8581C22.505 21.041 22.5103 21.2155 22.5209 21.3817C22.5315 21.5479 22.5422 21.6892 22.5528 21.8055H22.1858C22.0156 21.1074 21.7976 20.5548 21.5316 20.1476C21.2763 19.7404 20.9678 19.4537 20.6062 19.2875C20.2445 19.113 19.819 19.0257 19.3297 19.0257H18.9627V26.1435C18.9627 26.4759 19.0052 26.7252 19.0903 26.8914C19.186 27.0576 19.3562 27.1698 19.6009 27.228C19.8456 27.2778 20.2019 27.3069 20.67 27.3152V27.5645C20.3402 27.5562 19.8988 27.5479 19.3456 27.5396C18.8031 27.5313 18.234 27.5271 17.6383 27.5271C17.0532 27.5271 16.5001 27.5313 15.9788 27.5396C15.4576 27.5479 15.0374 27.5562 14.7183 27.5645V27.3152C15.197 27.3069 15.5587 27.2778 15.8033 27.228C16.048 27.1698 16.2129 27.0576 16.298 26.8914C16.3831 26.7252 16.4256 26.4759 16.4256 26.1435V19.0257H16.0746C15.5852 19.0257 15.1597 19.113 14.7981 19.2875C14.4364 19.4537 14.1279 19.7404 13.8726 20.1476C13.6173 20.5465 13.3939 21.0991 13.2024 21.8055H12.8354C12.8567 21.6892 12.8674 21.5479 12.8674 21.3817C12.878 21.2155 12.8833 21.041 12.8833 20.8581C12.8833 20.6504 12.8727 20.3512 12.8514 19.9606C12.8408 19.57 12.878 19.2002 12.8354 18.7764C13.3248 18.7847 13.7928 18.7556 14.3672 18.7639C14.9523 18.7723 15.5374 18.7764 16.1224 18.7764C16.7075 18.7764 17.2341 18.7764 17.7021 18.7764C18.1808 18.7764 18.7074 18.7764 19.2818 18.7764C19.8668 18.7764 20.4519 18.7723 21.037 18.7639C21.622 18.7556 22.1486 18.7473 22.6166 18.739Z" fill="#292929"/>
<path d="M34.1843 18.739V18.9883C33.9502 19.0548 33.7003 19.2002 33.4343 19.4246C33.179 19.649 32.9397 19.998 32.7163 20.4717L29.3495 27.5895C29.2644 27.5812 29.174 27.577 29.0783 27.577C28.9825 27.577 28.8868 27.577 28.791 27.577C28.7059 27.577 28.6155 27.577 28.5198 27.577C28.424 27.577 28.3336 27.5812 28.2485 27.5895L24.1797 19.7861C24.0308 19.4869 23.8659 19.2833 23.685 19.1753C23.5042 19.059 23.334 18.9966 23.1744 18.9883V18.739C23.4936 18.7473 23.8659 18.7556 24.2914 18.7639C24.7275 18.7723 25.1637 18.7764 25.5998 18.7764C26.0891 18.7764 26.5465 18.7723 26.972 18.7639C27.4082 18.7556 27.7592 18.7473 28.0251 18.739V18.9883C27.6847 18.9966 27.4188 19.0299 27.2273 19.088C27.0359 19.1379 26.9295 19.2376 26.9082 19.3872C26.8869 19.5285 26.9508 19.7446 27.0997 20.0354L30.0037 25.8069L29.6686 26.1186L31.8706 21.4814C32.1578 20.8581 32.3067 20.3678 32.3174 20.0105C32.328 19.6531 32.2163 19.3955 31.9823 19.2376C31.7483 19.0797 31.4132 18.9966 30.9771 18.9883V18.739C31.3387 18.7473 31.6791 18.7556 31.9983 18.7639C32.3174 18.7723 32.6418 18.7764 32.9716 18.7764C33.2056 18.7764 33.4237 18.7723 33.6258 18.7639C33.8385 18.7556 34.0247 18.7473 34.1843 18.739Z" fill="#292929"/>
</svg>
