<svg width="53" height="45" viewBox="0 0 53 45" fill="none" xmlns="http://www.w3.org/2000/svg">
<path d="M0.273438 0H43.6371C48.6076 0 52.6371 4.02944 52.6371 9V36C52.6371 40.9706 48.6076 45 43.6371 45H0.273438V0Z" fill="#292929"/>
<path d="M16.4308 19.8182H19.0857L21.8896 26.6591H22.009L24.8129 19.8182H27.4678V30H25.3797V23.3729H25.2952L22.6602 29.9503H21.2384L18.6034 23.348H18.5189V30H16.4308V19.8182Z" fill="white"/>
<path d="M34.4894 24.1114C33.8954 24.1114 33.3665 24.0093 32.9025 23.8051C32.4411 23.5983 32.0765 23.3146 31.8087 22.954C31.5435 22.5907 31.407 22.1718 31.399 21.6972H33.1331C33.1437 21.896 33.2087 22.071 33.328 22.2222C33.45 22.3706 33.6117 22.486 33.8132 22.5682C34.0148 22.6504 34.2415 22.6915 34.4934 22.6915C34.7559 22.6915 34.9879 22.6451 35.1894 22.5523C35.3909 22.4595 35.5487 22.3309 35.6627 22.1665C35.7767 22.0021 35.8337 21.8125 35.8337 21.5977C35.8337 21.3803 35.7727 21.1881 35.6507 21.021C35.5314 20.8513 35.3591 20.7187 35.1337 20.6233C34.911 20.5278 34.6458 20.4801 34.3382 20.4801H33.5786V19.2153H34.3382C34.5981 19.2153 34.8275 19.1703 35.0263 19.0801C35.2278 18.99 35.3843 18.8653 35.4956 18.7063C35.607 18.5445 35.6627 18.3563 35.6627 18.1415C35.6627 17.9373 35.6136 17.7583 35.5155 17.6045C35.4201 17.4481 35.2848 17.3261 35.1098 17.2386C34.9375 17.1511 34.736 17.1074 34.5053 17.1074C34.272 17.1074 34.0585 17.1498 33.865 17.2347C33.6714 17.3169 33.5163 17.4348 33.3996 17.5886C33.2829 17.7424 33.2206 17.9227 33.2127 18.1295H31.5621C31.5701 17.6602 31.704 17.2466 31.9638 16.8886C32.2237 16.5307 32.5737 16.2509 33.0138 16.0494C33.4566 15.8453 33.9564 15.7432 34.5132 15.7432C35.0754 15.7432 35.5672 15.8453 35.9888 16.0494C36.4104 16.2536 36.7379 16.5294 36.9712 16.8767C37.2072 17.2214 37.3239 17.6085 37.3212 18.0381C37.3239 18.4941 37.182 18.8746 36.8956 19.1795C36.6119 19.4845 36.242 19.678 35.786 19.7602V19.8239C36.3852 19.9008 36.8413 20.1089 37.1542 20.4483C37.4697 20.785 37.6261 21.2066 37.6235 21.7131C37.6261 22.1771 37.4922 22.5894 37.2218 22.95C36.954 23.3106 36.5841 23.5943 36.1121 23.8011C35.6401 24.008 35.0992 24.1114 34.4894 24.1114Z" fill="white"/>
</svg>
