<svg width="66" height="66" viewBox="0 0 66 66" fill="none" xmlns="http://www.w3.org/2000/svg">
<circle cx="33" cy="33" r="33" fill="#292929"/>
<g clip-path="url(#clip0_776_16256)">
<path d="M32.9998 54.0001C32.8376 53.9999 32.6763 53.9762 32.5209 53.9298C14.8748 48.6345 14.667 34.1462 14.667 34.0001V19.0001C14.6671 18.6149 14.8007 18.2417 15.0449 17.9438C15.2892 17.646 15.6291 17.442 16.0068 17.3665L32.6732 14.0329C32.8887 13.989 33.1109 13.989 33.3264 14.0329L49.9928 17.3665C50.3705 17.442 50.7104 17.646 50.9547 17.9438C51.1989 18.2417 51.3325 18.6149 51.3326 19.0001V34.0001C51.3326 34.1454 51.1287 48.6345 33.4787 53.9298C33.3233 53.9762 33.162 53.9999 32.9998 54.0001ZM17.9998 20.3665V34.0001C18.0037 34.4837 18.2725 45.9298 32.9998 50.5892C47.7271 45.9298 47.9959 34.4837 47.9998 33.9931V20.3665L32.9998 17.3673L17.9998 20.3665Z" fill="white"/>
<path d="M31.3325 39.0002C31.0038 39.0005 30.6824 38.9032 30.4091 38.7205L25.4091 35.3869C25.227 35.2655 25.0706 35.1094 24.9488 34.9276C24.827 34.7457 24.7422 34.5416 24.6993 34.327C24.6564 34.1124 24.6562 33.8914 24.6987 33.6767C24.7412 33.462 24.8256 33.2577 24.947 33.0756C25.0684 32.8935 25.2245 32.7371 25.4064 32.6153C25.5882 32.4935 25.7923 32.4088 26.0069 32.3659C26.2216 32.323 26.4425 32.3227 26.6572 32.3652C26.872 32.4077 27.0762 32.4921 27.2583 32.6135L31.0122 35.1135L38.3856 26.2659C38.6686 25.9263 39.0748 25.713 39.515 25.6729C39.9552 25.6328 40.3933 25.7692 40.7329 26.0522C41.0725 26.3351 41.2858 26.7414 41.3259 27.1816C41.366 27.6218 41.2295 28.0598 40.9466 28.3994L32.613 38.3994C32.4568 38.5875 32.261 38.7387 32.0397 38.8426C31.8184 38.9464 31.577 39.0002 31.3325 39.0002Z" fill="white"/>
</g>
<defs>
<clipPath id="clip0_776_16256">
<rect width="40" height="40" fill="white" transform="translate(13 14)"/>
</clipPath>
</defs>
</svg>
