<svg width="36" height="36" viewBox="0 0 36 36" fill="none" xmlns="http://www.w3.org/2000/svg">
<path d="M3.375 6.75V23.625C3.375 24.8625 4.3875 25.875 5.625 25.875H30.375C31.6125 25.875 32.625 24.8625 32.625 23.625V6.75C32.625 5.5125 31.6125 4.5 30.375 4.5H5.625C4.3875 4.5 3.375 5.5125 3.375 6.75Z" stroke="#1D64B4" stroke-width="2" stroke-miterlimit="10" stroke-linecap="round" stroke-linejoin="round"/>
<path d="M3.375 21.375H32.625" stroke="#1D64B4" stroke-width="2" stroke-miterlimit="10" stroke-linecap="round" stroke-linejoin="round"/>
<path d="M10.125 32.625H25.875" stroke="#1D64B4" stroke-width="2" stroke-miterlimit="10" stroke-linecap="round" stroke-linejoin="round"/>
<path d="M14.6246 25.875C14.6246 28.2375 13.8371 31.05 12.5996 32.625" stroke="#1D64B4" stroke-width="2" stroke-miterlimit="10" stroke-linecap="round"/>
<path d="M23.4 32.625C22.1625 31.05 21.375 28.2375 21.375 25.875" stroke="#1D64B4" stroke-width="2" stroke-miterlimit="10" stroke-linecap="round"/>
<path d="M21.15 18C21.2625 17.6625 21.375 17.325 21.375 16.875C21.375 14.9625 19.9125 13.5 18 13.5C16.0875 13.5 14.625 14.9625 14.625 16.875C14.625 17.325 14.7375 17.6625 14.85 18" stroke="#1D64B4" stroke-width="2" stroke-miterlimit="10" stroke-linecap="round" stroke-linejoin="round"/>
<path d="M27.3371 18C27.3371 17.6625 27.4496 17.2125 27.4496 16.875C27.4496 16.0875 27.3371 15.4125 27.2246 14.7375C26.0996 14.85 24.9746 14.4 24.4121 13.275C23.8496 12.2625 23.9621 11.025 24.6371 10.125C23.6246 9.1125 22.2746 8.325 20.8121 7.875C20.2496 8.8875 19.2371 9.675 17.9996 9.675C16.7621 9.675 15.7496 8.8875 15.2996 7.875C13.8371 8.325 12.5996 9.1125 11.4746 10.125C12.1496 11.025 12.2621 12.2625 11.6996 13.275C11.1371 14.2875 9.89961 14.85 8.88711 14.7375C8.77461 15.4125 8.66211 16.2 8.66211 16.875C8.66211 17.2125 8.66211 17.6625 8.77461 18" stroke="#1D64B4" stroke-width="2" stroke-miterlimit="10" stroke-linecap="round" stroke-linejoin="round"/>
</svg>
