<svg width="32" height="32" viewBox="0 0 32 32" fill="none" xmlns="http://www.w3.org/2000/svg">
<g clip-path="url(#clip0_331_752)">
<path d="M16 0C12.8355 0 9.74207 0.938384 7.11088 2.69649C4.4797 4.45459 2.42894 6.95345 1.21793 9.87706C0.0069325 12.8007 -0.309921 16.0177 0.307443 19.1214C0.924806 22.2251 2.44866 25.0761 4.6863 27.3137C6.92394 29.5513 9.77487 31.0752 12.8786 31.6926C15.9823 32.3099 19.1993 31.9931 22.1229 30.7821C25.0466 29.5711 27.5454 27.5203 29.3035 24.8891C31.0616 22.2579 32 19.1645 32 16C32 11.7565 30.3143 7.68687 27.3137 4.68629C24.3131 1.68571 20.2435 0 16 0ZM16 29.335C13.3626 29.335 10.7844 28.5529 8.59148 27.0876C6.39855 25.6224 4.68937 23.5397 3.68007 21.1031C2.67078 18.6664 2.4067 15.9852 2.92124 13.3985C3.43577 10.8117 4.7058 8.43566 6.57074 6.57073C8.43567 4.7058 10.8117 3.43576 13.3985 2.92123C15.9852 2.40669 18.6664 2.67077 21.1031 3.68007C23.5397 4.68936 25.6224 6.39854 27.0877 8.59147C28.5529 10.7844 29.335 13.3626 29.335 16C29.3284 19.5346 27.9213 22.9226 25.422 25.422C22.9226 27.9213 19.5346 29.3284 16 29.335Z" fill="#1D64B4"/>
<path d="M21.775 17.3351L18.225 14.6651L17.335 14.0001V6.66508C17.335 6.31101 17.1944 5.97145 16.944 5.72109C16.6937 5.47073 16.3541 5.33008 16 5.33008C15.646 5.33008 15.3064 5.47073 15.0561 5.72109C14.8057 5.97145 14.665 6.31101 14.665 6.66508V14.6651C14.666 14.7696 14.6795 14.8737 14.705 14.9751C14.729 15.0729 14.766 15.1671 14.815 15.2551C14.8494 15.3427 14.8984 15.4239 14.96 15.4951C14.96 15.4951 14.96 15.5351 15 15.5451C15.0554 15.6097 15.1174 15.6684 15.185 15.7201L15.24 15.7601L17.32 17.3201L20.52 19.7201C20.7497 19.8951 21.0313 19.9884 21.32 19.9851C21.5994 19.984 21.8714 19.8954 22.0977 19.7316C22.324 19.5679 22.4932 19.3373 22.5816 19.0723C22.6699 18.8072 22.6729 18.5212 22.5901 18.2544C22.5073 17.9876 22.3429 17.7535 22.12 17.5851L21.775 17.3351Z" fill="#1D64B4"/>
</g>
<defs>
<clipPath id="clip0_331_752">
<rect width="32" height="32" fill="white"/>
</clipPath>
</defs>
</svg>
