<svg width="103" height="103" viewBox="0 0 103 103" fill="none" xmlns="http://www.w3.org/2000/svg">
<g clip-path="url(#clip0_1002_1731)">
<path d="M102.719 48.7638L94.7333 31.5129C94.2354 30.4384 93.1593 29.7504 91.9754 29.7504H66.8622V14.7126C66.8622 13.0344 65.502 11.6738 63.8234 11.6738H3.03877C1.36015 11.6738 0 13.0344 0 14.7126V65.8534C0 67.5316 1.36015 68.8922 3.03877 68.8922H8.9911C8.48221 70.0064 8.0977 71.1883 7.85703 72.422H3.03877C1.36015 72.422 0 73.7826 0 75.4608C0 77.139 1.36015 78.4995 3.03877 78.4995H7.85744C9.27958 85.7991 15.7201 91.3268 23.4305 91.3268C31.1397 91.3268 37.5798 85.7987 39.002 78.4995H64.3639C65.786 85.7991 72.2262 91.3268 79.9362 91.3268C87.6449 91.3268 94.0847 85.7987 95.5068 78.4995H99.962C101.641 78.4995 103.001 77.139 103.001 75.4608V50.0405C103 49.5993 102.904 49.1637 102.719 48.7638ZM64.3631 72.4216H39.0016C38.7613 71.1879 38.3764 70.006 37.8675 68.8918H63.8238C64.6293 68.8918 65.3598 68.5762 65.9035 68.0644C65.1888 69.414 64.6641 70.8779 64.3631 72.4216ZM6.07753 17.7514H60.7846V62.8147H32.9998C30.3374 60.7949 27.0219 59.5936 23.4301 59.5936C19.8383 59.5936 16.522 60.7949 13.8596 62.8147H6.07753V17.7514ZM23.4301 85.2488C18.0316 85.2488 13.6396 80.8576 13.6396 75.4604C13.6396 70.0623 18.0316 65.6707 23.4301 65.6707C28.8278 65.6707 33.219 70.0623 33.219 75.4604C33.219 80.8576 28.8278 85.2488 23.4301 85.2488ZM79.9354 85.2488C74.5373 85.2488 70.1457 80.8576 70.1457 75.4604C70.1457 70.0623 74.5373 65.6707 79.9354 65.6707C85.3326 65.6707 89.7234 70.0623 89.7234 75.4604C89.7234 80.8576 85.3326 85.2488 79.9354 85.2488ZM96.9225 72.4216H95.506C94.0839 65.1213 87.6449 59.5932 79.9354 59.5932C74.4514 59.5932 69.6092 62.3904 66.7581 66.6326C66.8237 66.3834 66.8626 66.1233 66.8626 65.8534V35.828H90.0338L96.9225 50.7094V72.4216Z" fill="#292929"/>
<path d="M85.5177 38.6133H72.7399C71.0613 38.6133 69.7012 39.9738 69.7012 41.652V50.0998C69.7012 51.778 71.0613 53.1386 72.7399 53.1386H89.5253C89.5297 53.1386 89.5313 53.1386 89.5334 53.1386C91.212 53.1386 92.5721 51.778 92.5721 50.0998C92.5721 49.5557 92.4291 49.0452 92.1787 48.6035L88.2636 40.3498C87.7604 39.2891 86.6915 38.6133 85.5177 38.6133ZM75.7787 47.0606V44.6904H83.596L84.72 47.0606H75.7787Z" fill="#292929"/>
</g>
<defs>
<clipPath id="clip0_1002_1731">
<rect width="103" height="103" fill="white"/>
</clipPath>
</defs>
</svg>
