<svg width="413" height="421" viewBox="0 0 413 421" fill="none" xmlns="http://www.w3.org/2000/svg">
<path fill-rule="evenodd" clip-rule="evenodd" d="M286.612 0V107.218L286.615 156.217L218.623 155.912L217.749 350.988L217.748 350.995L217.75 366.632L154.75 366.627L154.74 249.746L187.24 249.749L187.235 186.317L71.2355 186.308L71.2377 214.627H-1.25V217.627H71.238L71.2454 311.102H3.00033V314.102L74.2456 314.102L74.2357 189.308L184.236 189.317L184.24 246.749L151.74 246.746L151.75 369.627L220.75 369.632L220.748 351.001L220.748 350.994L220.934 309.694L278.5 309.952V400.296H311.386V373.357H359.19V420.5H410V417.5H362.19V370.357H308.386V397.296H281.5V309.965L317.933 310.128L318.079 277.622H358.079L357.742 352.814H412.75V349.814H360.756L361.079 277.622H410.501V274.622H315.092L314.947 307.115L220.947 306.694L221.609 158.926L289.616 159.231L289.613 124.328L383.834 125.411L382.975 210.494L410 210.494V207.494L386.006 207.494L386.864 122.446L354.771 122.077L354.771 68.4395L410 68.4395V65.4395L354.771 65.4395L354.771 2.96749e-06L351.771 0L351.771 32.5H289.612V0H286.612ZM289.612 35.5L289.613 121.328L351.771 122.042L351.771 35.5H289.612Z" fill="#E0E0E0"/>
</svg>
