<svg width="79" height="94" viewBox="0 0 79 94" fill="none" xmlns="http://www.w3.org/2000/svg">
<g filter="url(#filter0_d_1002_1833)">
<path d="M4.1875 61.0374V17.2499C4.1875 14.268 4.93299 11.7372 6.42396 9.65773C7.91493 7.57822 10.1318 5.89106 13.0745 4.59627C16.0172 3.30148 19.7054 2.3402 24.1391 1.71242C28.5727 1.08464 33.6931 0.770752 39.5 0.770752C45.4639 0.770752 50.6627 1.06502 55.0964 1.65356C59.53 2.24211 63.1986 3.18377 66.1021 4.47856C69.0056 5.77336 71.1832 7.46051 72.6349 9.54002C74.0866 11.6195 74.8125 14.1895 74.8125 17.2499V61.0374C74.8125 65.2749 73.3608 68.8454 70.4573 71.7489C67.5538 74.6524 63.9833 76.1041 59.7458 76.1041L66.8083 83.1666V85.5208H61.0406L51.624 76.1041H27.376L17.9594 85.5208H12.1917V83.1666L19.2542 76.1041C15.0167 76.1041 11.4462 74.6524 8.54271 71.7489C5.63924 68.8454 4.1875 65.2749 4.1875 61.0374ZM39.5 6.06763C29.9264 6.06763 23.0012 6.71502 18.7245 8.00981C14.4477 9.30461 11.6031 11.2468 10.1906 13.8364H68.9271C67.8285 11.4037 64.9839 9.50079 60.3932 8.12752C55.8026 6.75426 48.8382 6.06763 39.5 6.06763ZM9.48438 39.7322H37.1458V19.1333H9.48438V39.7322ZM59.7458 45.0291H9.48438H69.5156H59.7458ZM42.5604 39.7322H69.5156V19.1333H42.5604V39.7322ZM22.6677 63.8624C24.1587 63.8624 25.4731 63.3131 26.6109 62.2145C27.7488 61.1159 28.3177 59.7426 28.3177 58.0947C28.3177 56.5253 27.7488 55.1716 26.6109 54.0338C25.4731 52.8959 24.1587 52.327 22.6677 52.327C21.0198 52.327 19.6465 52.8959 18.5479 54.0338C17.4493 55.1716 16.9 56.5253 16.9 58.0947C16.9 59.7426 17.4493 61.1159 18.5479 62.2145C19.6465 63.3131 21.0198 63.8624 22.6677 63.8624ZM56.45 63.8624C58.0194 63.8624 59.3535 63.3131 60.4521 62.2145C61.5507 61.1159 62.1 59.7426 62.1 58.0947C62.1 56.5253 61.5507 55.1716 60.4521 54.0338C59.3535 52.8959 58.0194 52.327 56.45 52.327C54.8806 52.327 53.5269 52.8959 52.3891 54.0338C51.2512 55.1716 50.6823 56.5253 50.6823 58.0947C50.6823 59.7426 51.2512 61.1159 52.3891 62.2145C53.5269 63.3131 54.8806 63.8624 56.45 63.8624ZM19.2542 71.1603H59.7458C62.4924 71.1603 64.8073 70.1794 66.6906 68.2176C68.574 66.2558 69.5156 63.8624 69.5156 61.0374V45.0291H9.48438V61.0374C9.48438 63.8624 10.426 66.2558 12.3094 68.2176C14.1927 70.1794 16.5076 71.1603 19.2542 71.1603ZM39.5 13.8364H68.9271H10.1906H39.5Z" fill="#292929"/>
</g>
<defs>
<filter id="filter0_d_1002_1833" x="0.1875" y="0.770752" width="78.625" height="92.75" filterUnits="userSpaceOnUse" color-interpolation-filters="sRGB">
<feFlood flood-opacity="0" result="BackgroundImageFix"/>
<feColorMatrix in="SourceAlpha" type="matrix" values="0 0 0 0 0 0 0 0 0 0 0 0 0 0 0 0 0 0 127 0" result="hardAlpha"/>
<feOffset dy="4"/>
<feGaussianBlur stdDeviation="2"/>
<feComposite in2="hardAlpha" operator="out"/>
<feColorMatrix type="matrix" values="0 0 0 0 0 0 0 0 0 0 0 0 0 0 0 0 0 0 0.25 0"/>
<feBlend mode="normal" in2="BackgroundImageFix" result="effect1_dropShadow_1002_1833"/>
<feBlend mode="normal" in="SourceGraphic" in2="effect1_dropShadow_1002_1833" result="shape"/>
</filter>
</defs>
</svg>
