<svg width="88" height="88" viewBox="0 0 88 88" fill="none" xmlns="http://www.w3.org/2000/svg">
<g clip-path="url(#clip0_1002_126)">
<path d="M84.626 83.0627C81.501 80.5627 76.1885 80.5627 73.0635 83.0627C69.9385 85.5627 64.626 85.5627 61.501 83.0627C58.376 80.5627 53.0635 80.5627 49.9385 83.0627C46.8135 85.5627 41.501 85.5627 38.376 83.0627C35.251 80.5627 29.9385 80.5627 26.8135 83.0627C23.6885 85.5627 18.376 85.5627 15.251 83.0627C12.126 80.5627 6.81348 80.5627 3.68848 83.0627" stroke="white" stroke-width="4.70552" stroke-miterlimit="10" stroke-linecap="round" stroke-linejoin="round"/>
<path d="M44 40.8748L9.625 53.3748L22.125 84.6248" stroke="white" stroke-width="4.70552" stroke-miterlimit="10" stroke-linecap="round" stroke-linejoin="round"/>
<path d="M44 40.8748L78.375 53.3748L65.875 84.6248" stroke="white" stroke-width="4.70552" stroke-miterlimit="10" stroke-linecap="round" stroke-linejoin="round"/>
<path d="M22.125 48.6873V28.3748C22.125 24.9373 24.9375 22.1248 28.375 22.1248H59.625C63.0625 22.1248 65.875 24.9373 65.875 28.3748V48.6873" stroke="white" stroke-width="4.70552" stroke-miterlimit="10" stroke-linecap="round" stroke-linejoin="round"/>
<path d="M31.5 31.4998H56.5" stroke="white" stroke-width="4.70552" stroke-miterlimit="10" stroke-linecap="round" stroke-linejoin="round"/>
<path d="M43.999 53.375L13.999 64.3125" stroke="white" stroke-width="4.70552" stroke-miterlimit="10" stroke-linecap="round" stroke-linejoin="round"/>
<path d="M44 53.3748L74 64.3123" stroke="white" stroke-width="4.70552" stroke-miterlimit="10" stroke-linecap="round" stroke-linejoin="round"/>
<path d="M50.25 22.1248H37.75V6.49976C41.1875 3.06226 46.8125 3.06226 50.25 6.49976V22.1248Z" stroke="white" stroke-width="4.70552" stroke-miterlimit="10" stroke-linecap="round" stroke-linejoin="round"/>
</g>
<defs>
<clipPath id="clip0_1002_126">
<rect width="88" height="88" fill="white"/>
</clipPath>
</defs>
</svg>
