<svg width="104" height="104" viewBox="0 0 104 104" fill="none" xmlns="http://www.w3.org/2000/svg">
<path d="M51.9997 93.1668C46.2941 93.1668 40.9316 92.0835 35.9122 89.9168C30.8927 87.7502 26.5233 84.8071 22.8038 81.0877C19.0844 77.3682 16.1594 72.9988 14.0288 67.9793C11.8983 62.9599 10.833 57.5613 10.833 51.7835C10.833 46.0779 11.8983 40.7335 14.0288 35.7502C16.1594 30.7668 19.0844 26.4154 22.8038 22.696C26.5233 18.9766 30.8927 16.0696 35.9122 13.9752C40.9316 11.8807 46.2941 10.8335 51.9997 10.8335C57.7052 10.8335 63.0677 11.8807 68.0872 13.9752C73.1066 16.0696 77.4761 18.9766 81.1955 22.696C84.915 26.4154 87.84 30.7668 89.9705 35.7502C92.1011 40.7335 93.1663 46.0779 93.1663 51.7835C93.1663 57.5613 92.1011 62.9599 89.9705 67.9793C87.84 72.9988 84.915 77.3682 81.1955 81.0877C77.4761 84.8071 73.1066 87.7502 68.0872 89.9168C63.0677 92.0835 57.7052 93.1668 51.9997 93.1668ZM51.9997 88.5085C54.6719 85.5474 56.8747 82.3696 58.608 78.9752C60.3413 75.5807 61.7858 71.6085 62.9413 67.0585H41.1663C42.2497 71.5363 43.658 75.5085 45.3913 78.9752C47.1247 82.4418 49.3275 85.6196 51.9997 88.5085ZM45.1747 87.5335C43.0802 84.9335 41.2566 81.8821 39.7038 78.3793C38.1511 74.8765 36.9413 71.1029 36.0747 67.0585H18.8497C21.5941 72.6918 25.0608 77.1154 29.2497 80.3293C33.4386 83.5432 38.7469 85.9446 45.1747 87.5335ZM58.933 87.5335C64.6386 86.2335 69.7844 83.8141 74.3705 80.2752C78.9566 76.7363 82.5497 72.3307 85.1497 67.0585H68.033C66.9497 71.1029 65.6497 74.8585 64.133 78.3252C62.6163 81.7918 60.883 84.8613 58.933 87.5335ZM17.2247 62.1835H35.0997C34.883 60.1613 34.7386 58.3196 34.6663 56.6585C34.5941 54.9974 34.558 53.3724 34.558 51.7835C34.558 50.0502 34.5941 48.4071 34.6663 46.8543C34.7386 45.3016 34.9191 43.6224 35.208 41.8168H17.2247C16.7191 43.4779 16.34 45.0849 16.0872 46.6377C15.8344 48.1904 15.708 49.9057 15.708 51.7835C15.708 53.7335 15.8344 55.521 16.0872 57.146C16.34 58.771 16.7191 60.4502 17.2247 62.1835ZM40.1913 62.1835H63.9163C64.2052 59.9446 64.4038 58.0668 64.5122 56.5502C64.6205 55.0335 64.6747 53.4446 64.6747 51.7835C64.6747 50.2668 64.6205 48.7682 64.5122 47.2877C64.4038 45.8071 64.2052 43.9835 63.9163 41.8168H40.1913C39.9025 43.9835 39.7038 45.8071 39.5955 47.2877C39.4872 48.7682 39.433 50.2668 39.433 51.7835C39.433 53.4446 39.4872 55.0335 39.5955 56.5502C39.7038 58.0668 39.9025 59.9446 40.1913 62.1835ZM68.7913 62.1835H86.7747C87.2802 60.4502 87.6594 58.771 87.9122 57.146C88.165 55.521 88.2913 53.7335 88.2913 51.7835C88.2913 49.9057 88.165 48.1904 87.9122 46.6377C87.6594 45.0849 87.2802 43.4779 86.7747 41.8168H68.8997C69.1163 44.2002 69.2788 46.1321 69.3872 47.6127C69.4955 49.0932 69.5497 50.4835 69.5497 51.7835C69.5497 53.4446 69.4955 55.0516 69.3872 56.6043C69.2788 58.1571 69.0802 60.0168 68.7913 62.1835ZM67.9247 36.8335H85.1497C82.6219 31.3446 79.1011 26.8488 74.5872 23.346C70.0733 19.8432 64.8191 17.5141 58.8247 16.3585C60.9191 19.1029 62.7066 22.1724 64.1872 25.5668C65.6677 28.9613 66.9136 32.7168 67.9247 36.8335ZM41.1663 36.8335H63.0497C62.1108 32.7891 60.6844 28.9613 58.7705 25.3502C56.8566 21.7391 54.5997 18.5252 51.9997 15.7085C49.5441 17.9474 47.4677 20.7279 45.7705 24.0502C44.0733 27.3724 42.5386 31.6335 41.1663 36.8335ZM18.8497 36.8335H36.0747C37.0136 32.8613 38.2233 29.196 39.7038 25.8377C41.1844 22.4793 42.9719 19.3557 45.0663 16.4668C39.0719 17.6224 33.8538 19.9154 29.4122 23.346C24.9705 26.7766 21.4497 31.2724 18.8497 36.8335Z" fill="white"/>
</svg>
