<svg width="40" height="40" viewBox="0 0 40 40" fill="none" xmlns="https://www.w3.org/2000/svg">
<path d="M33.9609 14.8906L31.5391 12.2187L32.2969 8.6953C32.3672 8.3828 32.1797 8.0703 31.875 7.96874L28.4453 6.85938L27.3437 3.42969C27.2422 3.125 26.9297 2.94531 26.6172 3.00781L23.0937 3.76562L20.4219 1.34375C20.1875 1.125 19.8203 1.125 19.5859 1.34375L16.9141 3.76562L13.3906 3.00781C13.0781 2.9375 12.7656 3.125 12.6641 3.42969L11.5547 6.85938L8.11718 7.96874C7.81249 8.0703 7.63281 8.3828 7.69531 8.6953L8.45312 12.2187L6.03125 14.8906C5.8125 15.125 5.8125 15.4922 6.03125 15.7266L8.45312 18.3984L7.69531 21.9219C7.625 22.2344 7.81249 22.5469 8.11718 22.6484L11.5469 23.7578L11.6875 24.2031L7.60937 35.5078C7.51562 35.7578 7.59375 36.0391 7.80469 36.2031C8.0078 36.3672 8.29687 36.3906 8.52343 36.25L12.6875 33.7031L14.2578 38.3203C14.3437 38.5703 14.5781 38.7422 14.8437 38.7422H14.8516C15.1172 38.7422 15.3516 38.5781 15.4375 38.3281L18.9297 28.6719L19.5859 29.2656C19.7031 29.375 19.8516 29.4297 20.0078 29.4297C20.1641 29.4297 20.3047 29.375 20.4297 29.2656L21.0859 28.6719L24.5781 38.3281C24.6641 38.5781 24.9062 38.7422 25.1641 38.7422H25.1719C25.4375 38.7422 25.6719 38.5703 25.7578 38.3203L27.3281 33.7031L31.4922 36.25C31.7187 36.3906 32.0078 36.3672 32.2109 36.2031C32.4141 36.0391 32.4922 35.7578 32.4062 35.5078L28.3203 24.2109L28.4609 23.7656L31.8906 22.6562C32.1953 22.5547 32.375 22.2422 32.3125 21.9297L31.5547 18.4062L33.9766 15.7344C34.1797 15.4922 34.1797 15.1328 33.9609 14.8906ZM14.8594 36.2344L13.6094 32.5625C13.5469 32.3828 13.4062 32.2422 13.2266 32.1719C13.0469 32.1016 12.8516 32.125 12.6875 32.2266L9.37499 34.25L12.3047 26.1484L12.6406 27.1875C12.7422 27.4922 13.0547 27.6719 13.3672 27.6094L16.8906 26.8516L17.9062 27.7734L14.8594 36.2344ZM30.6094 34.2578L27.2969 32.2344C27.1328 32.1328 26.9375 32.1172 26.7578 32.1797C26.5781 32.2422 26.4375 32.3828 26.375 32.5703L25.125 36.2422L22.0625 27.7812L23.0781 26.8594L26.6016 27.6172C26.9141 27.6875 27.2266 27.5 27.3281 27.1953L27.6641 26.1562L30.6094 34.2578ZM30.4062 17.8047C30.2734 17.9531 30.2187 18.1562 30.2578 18.3516L30.9609 21.6406L27.7656 22.6719C27.5781 22.7344 27.4219 22.8828 27.3594 23.0781L27.0547 24.0156L26.3281 26.2734L23.0391 25.5703C22.8437 25.5312 22.6406 25.5859 22.4922 25.7187L20 27.9687L17.5078 25.7109C17.3906 25.6094 17.2422 25.5469 17.0859 25.5469C17.0391 25.5469 17 25.5547 16.9531 25.5625L13.6641 26.2656L12.9375 24.0078L12.6328 23.0703C12.5703 22.8828 12.4219 22.7266 12.2266 22.6641L9.03905 21.6406L9.74218 18.3516C9.78124 18.1562 9.72655 17.9531 9.59374 17.8047L7.34375 15.3125L9.60155 12.8203C9.73437 12.6719 9.78905 12.4687 9.74999 12.2734L9.04687 8.98437L12.2422 7.95312C12.4297 7.89062 12.5859 7.74219 12.6484 7.54688L13.6719 4.35156L16.9609 5.05469C17.1562 5.09375 17.3594 5.03906 17.5078 4.90625L20 2.65625L22.4922 4.91406C22.6406 5.04688 22.8437 5.10156 23.0391 5.0625L26.3281 4.35937L27.3594 7.55469C27.4219 7.74219 27.5703 7.89843 27.7656 7.96093L30.9609 8.99218L30.2578 12.2812C30.2187 12.4766 30.2734 12.6797 30.4062 12.8281L32.6562 15.3125L30.4062 17.8047Z" fill="white"/>
<path d="M20 6.25C14.8281 6.25 10.625 10.4531 10.625 15.625C10.625 20.7969 14.8281 25 20 25C25.1719 25 29.375 20.7969 29.375 15.625C29.375 10.4531 25.1719 6.25 20 6.25ZM20 23.75C15.5234 23.75 11.875 20.1016 11.875 15.625C11.875 11.1484 15.5234 7.5 20 7.5C24.4766 7.5 28.125 11.1484 28.125 15.625C28.125 20.1016 24.4766 23.75 20 23.75Z" fill="white"/>
<path d="M23.4922 10.9844L18.125 16.2969L16.5078 14.6953C16.0234 14.2188 15.2344 14.2188 14.7422 14.6953L13.75 15.6719C13.5156 15.9063 13.3828 16.2188 13.3828 16.5547C13.3828 16.8906 13.5156 17.2031 13.75 17.4375L17.2422 20.8906C17.4844 21.1328 17.8047 21.25 18.125 21.25C18.4453 21.25 18.7656 21.1328 19.0078 20.8906L26.25 13.7344C26.4844 13.5 26.6172 13.1875 26.6172 12.8516C26.6172 12.5156 26.4844 12.2031 26.25 11.9688L25.2578 10.9922C24.7734 10.5078 23.9766 10.5078 23.4922 10.9844ZM19.5625 18.5859L18.125 20L14.6406 16.5547L15.6328 15.5859L17.6875 17.6172C17.9297 17.8594 18.3203 17.8594 18.5625 17.6172L24.375 11.875L23.9375 11.4297L25.3672 12.8438L19.5625 18.5859Z" fill="white"/>
</svg>
