<svg width="37" height="40" viewBox="0 0 37 40" fill="none" xmlns="https://www.w3.org/2000/svg">
<path fill-rule="evenodd" clip-rule="evenodd" d="M18.5001 4.62501C17.1235 4.62501 15.8921 5.64899 15.8921 7.04762C15.8921 8.44626 17.1235 9.47024 18.5001 9.47024C19.8768 9.47024 21.1082 8.44626 21.1082 7.04762C21.1082 5.64899 19.8768 4.62501 18.5001 4.62501ZM17.2135 7.04762C17.2135 6.50011 17.7258 5.94643 18.5001 5.94643C19.2745 5.94643 19.7868 6.50011 19.7868 7.04762C19.7868 7.59513 19.2745 8.14882 18.5001 8.14882C17.7258 8.14882 17.2135 7.59513 17.2135 7.04762Z" fill="white"/>
<path d="M14.2905 23.4725C14.2616 23.4725 14.2323 23.4711 14.203 23.468C13.7763 23.4239 13.318 23.4012 12.8403 23.4012C12.3717 23.3978 11.9145 23.4153 11.4714 23.4436C11.0488 23.4704 10.6887 23.1841 10.6594 22.8052C10.6301 22.426 10.9458 22.097 11.3649 22.0705C11.8434 22.0402 12.3371 22.0182 12.8407 22.0251C13.3758 22.0251 13.8927 22.0505 14.3765 22.1008C14.7937 22.1441 15.0934 22.4855 15.0455 22.863C15.001 23.2137 14.672 23.4725 14.2905 23.4725Z" fill="white"/>
<path d="M22.6775 29.9695C22.4824 29.9695 22.2877 29.902 22.139 29.7671C21.4228 29.1174 20.8633 28.3617 20.3053 27.5802C20.0775 27.2609 20.179 26.8349 20.532 26.6287C20.8846 26.4223 21.3558 26.5145 21.5837 26.8338C22.1146 27.5785 22.6041 28.2399 23.2161 28.7953C23.5128 29.0644 23.512 29.5001 23.2146 29.7685C23.0662 29.9027 22.8719 29.9695 22.6775 29.9695Z" fill="white"/>
<path d="M30.5621 30.74C30.3396 30.74 30.1186 30.6522 29.9684 30.4829C29.7052 30.1866 29.7573 29.7534 30.0847 29.5152C30.6526 29.1023 31.1798 28.5238 31.7431 27.6948C31.9629 27.3714 32.4311 27.2698 32.7894 27.4691C33.1473 27.6683 33.2587 28.0923 33.0389 28.4158C32.3813 29.3831 31.7457 30.0734 31.0375 30.5882C30.8976 30.6901 30.7294 30.74 30.5621 30.74Z" fill="white"/>
<path fill-rule="evenodd" clip-rule="evenodd" d="M25.9766 8.24892C25.9766 9.64496 25.5113 10.9681 24.8306 12.159L26.8815 11.3343C27.1306 11.2341 27.4093 11.2369 27.6563 11.3421L35.5888 14.7195C35.9556 14.8757 36.1967 15.2324 36.2049 15.6309L36.6761 38.6558C36.691 39.382 35.9592 39.8875 35.2853 39.6165L27.242 36.3821L18.2873 39.367L18.2809 39.3852L18.2576 39.3769L18.2222 39.3887L18.2131 39.3613L9.7526 36.3845L1.46775 39.7159C0.911007 39.9398 0.306508 39.5223 0.318788 38.9223L0.797843 15.517C0.804582 15.1878 1.00375 14.8931 1.30672 14.7641L9.41114 11.3135C9.61522 11.2266 9.84544 11.2243 10.0512 11.3071L12.1697 12.1589C11.489 10.968 11.0236 9.64495 11.0236 8.24892C11.0236 6.34239 11.8197 4.52097 13.2251 3.18332C14.6295 1.84672 16.5275 1.1012 18.5001 1.1012C20.4728 1.1012 22.3708 1.84672 23.7751 3.18332C25.1806 4.52097 25.9766 6.34239 25.9766 8.24892ZM14.1362 4.14051C15.2882 3.044 16.8575 2.42262 18.5001 2.42262C20.1428 2.42262 21.712 3.044 22.8641 4.14051C24.0151 5.23596 24.6552 6.71453 24.6552 8.24892C24.6552 10.4936 23.1204 12.6715 21.4398 14.3599C20.6151 15.1884 19.788 15.8666 19.166 16.3379C18.8999 16.5396 18.6724 16.7026 18.5001 16.8226C18.3278 16.7026 18.1004 16.5396 17.8343 16.3379C17.2123 15.8666 16.3852 15.1884 15.5605 14.3599C13.8799 12.6715 12.3451 10.4936 12.3451 8.24892C12.3451 6.71453 12.9852 5.23596 14.1362 4.14051ZM17.8393 17.9722L17.833 17.9679C17.6393 17.8347 17.3647 17.6401 17.0361 17.3911C16.3801 16.8939 15.5033 16.1755 14.624 15.2921C14.2745 14.9411 13.9191 14.5584 13.5744 14.148L10.3512 12.8519V35.1942L17.8393 37.8289V24.7645C17.4838 24.5007 17.1095 24.2826 16.7015 24.0995C16.325 23.9305 16.1713 23.5175 16.3581 23.1772C16.5448 22.8362 17.0009 22.6975 17.3774 22.8665C17.5346 22.937 17.6885 23.0123 17.8393 23.0923V17.9722ZM19.1607 37.683V25.762C19.2003 25.7677 19.2402 25.7705 19.2803 25.7705C19.4571 25.7705 19.6348 25.7151 19.7785 25.6019C20.0957 25.3527 20.1296 24.9181 19.8538 24.6311C19.6295 24.3974 19.3989 24.1816 19.1607 23.9828V17.9724L19.1673 17.9679C19.361 17.8347 19.6356 17.6401 19.9642 17.3911C20.6202 16.8939 21.497 16.1755 22.3763 15.2921C22.7258 14.9411 23.0812 14.5584 23.4259 14.1481L26.6488 12.8521V30.235C26.1728 30.1871 25.7357 30.1036 25.3282 29.9832C24.9303 29.8659 24.4994 30.0627 24.3689 30.4241C24.2388 30.7854 24.4568 31.1739 24.8561 31.2919C25.4121 31.456 26.0045 31.5643 26.6488 31.6188V35.187L19.1607 37.683ZM28.6851 30.9323C28.7059 31.3097 28.3865 31.6312 27.9702 31.6533V35.2507L35.3454 38.2164L35.0753 25.0186C34.857 25.3689 34.6474 25.7293 34.445 26.0816C34.3092 26.3177 34.0442 26.4529 33.7695 26.4529C33.6513 26.4529 33.5314 26.4278 33.4192 26.3751C33.0465 26.1996 32.9012 25.7843 33.0948 25.447C33.5474 24.6593 34.0365 23.83 34.5998 23.1132C34.7084 22.9751 34.8628 22.8843 35.0308 22.8454L34.8878 15.8572L27.9702 12.912V30.2788C28.3529 30.2975 28.6659 30.5776 28.6851 30.9323ZM2.11259 15.8572L9.02976 12.9121V22.6034C8.85294 22.485 8.62093 22.4366 8.39061 22.4883C7.36634 22.7219 6.40559 23.0471 5.53498 23.4553C5.16186 23.6301 5.01619 24.0458 5.2094 24.383C5.34481 24.6194 5.61029 24.755 5.88528 24.755C6.00318 24.755 6.12261 24.7302 6.23481 24.6772C7.00159 24.318 7.85166 24.0306 8.76221 23.8231C8.86191 23.8004 8.95202 23.7608 9.02976 23.7086V35.2509L1.65494 38.2164L1.85866 28.2633C2.07132 28.2314 2.26767 28.1183 2.38686 27.9378C2.84936 27.2392 3.41075 26.6084 4.05505 26.063C4.36161 25.8032 4.37759 25.3679 4.09081 25.0902C3.80365 24.8132 3.32251 24.7984 3.01557 25.0578C2.61572 25.3964 2.24351 25.7631 1.90182 26.1547L2.11259 15.8572Z" fill="white"/>
</svg>
