<svg width="20" height="20" viewBox="0 0 20 20" fill="none" xmlns="https://www.w3.org/2000/svg">
<path d="M19.2636 15.1253L15.748 12.5553C15.5608 12.4184 15.3309 12.3525 15.0996 12.3694C14.8682 12.3862 14.6504 12.4848 14.4849 12.6474L12.6067 14.4919L12.6003 14.4983C12.4425 14.6509 12.2309 14.7351 12.0114 14.7327C11.7919 14.7302 11.5822 14.6413 11.4279 14.4852L8.18107 11.2384L5.5154 8.57276C5.35932 8.4184 5.27041 8.20872 5.26797 7.98923C5.26552 7.76973 5.34973 7.55812 5.50233 7.40032L5.50872 7.39392L7.35325 5.5157C7.51587 5.35027 7.61441 5.13243 7.63128 4.90107C7.64816 4.6697 7.58226 4.43987 7.44536 4.2526L4.87528 0.737026C4.79195 0.623024 4.68494 0.528407 4.56158 0.459675C4.43823 0.390942 4.30146 0.349722 4.16067 0.338845C4.01988 0.327968 3.87841 0.347692 3.74596 0.396662C3.61352 0.445633 3.49324 0.522689 3.39339 0.62254L2.0684 1.94753C1.98472 2.03121 1.90481 2.11809 1.82868 2.20817C1.58547 2.49554 1.05897 3.14002 0.858767 3.55466C0.398683 4.52538 0.23826 5.61116 0.39797 6.67344C0.55768 7.73573 1.03028 8.72634 1.75546 9.51885L10.4818 18.2452C11.2743 18.9704 12.2649 19.443 13.3272 19.6027C14.3895 19.7624 15.4753 19.6019 16.446 19.1419C16.8606 18.9417 17.5051 18.4152 17.7925 18.172C17.8825 18.0958 17.9694 18.0159 18.0531 17.9322L19.3781 16.6072C19.4779 16.5074 19.555 16.3871 19.604 16.2547C19.6529 16.1222 19.6727 15.9807 19.6618 15.84C19.6509 15.6992 19.6097 15.5624 19.541 15.439C19.4722 15.3157 19.3776 15.2087 19.2636 15.1253Z" fill="#1D64B4"/>
</svg>
