<svg width="40" height="40" viewBox="0 0 40 40" fill="none" xmlns="https://www.w3.org/2000/svg">
<path d="M33.2659 26.3817L26.3492 17.4025C26.0145 16.9642 25.8333 16.4281 25.8334 15.8767V6.51333C26.3889 6.31764 26.8573 5.93164 27.1555 5.42371C27.4538 4.91578 27.5627 4.31868 27.4629 3.73818C27.363 3.15767 27.061 2.63122 26.6102 2.25207C26.1594 1.87292 25.589 1.66554 25 1.66666H15C14.411 1.66554 13.8406 1.87292 13.3899 2.25207C12.939 2.63122 12.637 3.15767 12.5372 3.73818C12.4374 4.31868 12.5463 4.91578 12.8445 5.42371C13.1428 5.93164 13.6111 6.31764 14.1667 6.51333V15.8767C14.1659 16.4285 13.9834 16.9647 13.6475 17.4025L6.73085 26.3817C5.8849 27.4805 5.36368 28.7944 5.22624 30.1743C5.08881 31.5542 5.34068 32.9452 5.95329 34.1892C6.56589 35.4334 7.51474 36.481 8.69235 37.2135C9.86985 37.9459 11.2291 38.3338 12.6159 38.3333H27.3842C28.7707 38.3332 30.1294 37.9448 31.3065 37.2122C32.4836 36.4795 33.4319 35.4317 34.0442 34.1877C34.6564 32.9437 34.9079 31.5532 34.7704 30.1735C34.6329 28.7938 34.1116 27.4803 33.2659 26.3817ZM15 3.33333H25C25.221 3.33333 25.433 3.42112 25.5893 3.5774C25.7455 3.73369 25.8334 3.94564 25.8334 4.16666C25.8334 4.38767 25.7455 4.59964 25.5893 4.75591C25.433 4.91219 25.221 4.99999 25 4.99999H24.1667C23.9457 4.99999 23.7337 5.08779 23.5774 5.24407C23.4212 5.40035 23.3334 5.61231 23.3334 5.83333C23.3334 6.05434 23.4212 6.2663 23.5774 6.42258C23.7337 6.57886 23.9457 6.66666 24.1667 6.66666V15.8767C24.1691 16.7952 24.473 17.6876 25.0317 18.4167L25.615 19.1733H14.385L14.9684 18.4167C15.3606 17.9015 15.6281 17.3026 15.75 16.6667H17.5C17.721 16.6667 17.933 16.5788 18.0893 16.4226C18.2455 16.2663 18.3334 16.0543 18.3334 15.8333C18.3334 15.6123 18.2455 15.4003 18.0893 15.2441C17.933 15.0878 17.721 15 17.5 15H15.8334V13.3333H17.5C17.721 13.3333 17.933 13.2455 18.0893 13.0892C18.2455 12.933 18.3334 12.721 18.3334 12.5C18.3334 12.279 18.2455 12.067 18.0893 11.9107C17.933 11.7545 17.721 11.6667 17.5 11.6667H15.8334V9.99999H17.5C17.721 9.99999 17.933 9.91215 18.0893 9.7559C18.2455 9.59965 18.3334 9.38765 18.3334 9.16665C18.3334 8.94565 18.2455 8.73365 18.0893 8.5774C17.933 8.42115 17.721 8.33332 17.5 8.33332H15.8334V6.66666H20C20.221 6.66666 20.433 6.57886 20.5893 6.42258C20.7455 6.2663 20.8334 6.05434 20.8334 5.83333C20.8334 5.61231 20.7455 5.40035 20.5893 5.24407C20.433 5.08779 20.221 4.99999 20 4.99999H15C14.779 4.99999 14.567 4.91219 14.4108 4.75591C14.2545 4.59964 14.1667 4.38767 14.1667 4.16666C14.1667 3.94564 14.2545 3.73369 14.4108 3.5774C14.567 3.42112 14.779 3.33333 15 3.33333ZM32.645 33.25C32.1919 34.2668 31.4539 35.1307 30.5204 35.7371C29.5867 36.3434 28.4974 36.6662 27.3842 36.6667H12.6159C11.5407 36.6666 10.487 36.3653 9.57427 35.7971C8.66152 35.2289 7.92609 34.4164 7.45137 33.4517C6.97665 32.487 6.78159 31.4087 6.88828 30.3387C6.99497 29.2689 7.39914 28.2503 8.05502 27.3983L13.1017 20.8425H26.8984L31.945 27.3983C32.5788 28.2198 32.9784 29.1975 33.1017 30.2277C33.2249 31.2578 33.0671 32.3022 32.645 33.25Z" fill="white"/>
<path d="M25.8333 27.5C25.1741 27.5 24.5296 27.6955 23.9814 28.0617C23.4333 28.428 23.006 28.9487 22.7538 29.5577C22.5014 30.1668 22.4354 30.837 22.5641 31.4837C22.6927 32.1302 23.0102 32.7242 23.4763 33.1903C23.9425 33.6565 24.5364 33.974 25.183 34.1026C25.8297 34.2312 26.4998 34.1652 27.1089 33.9129C27.718 33.6607 28.2387 33.2334 28.6049 32.6853C28.9712 32.1371 29.1667 31.4926 29.1667 30.8333C29.1667 29.9492 28.8155 29.1014 28.1903 28.4763C27.5653 27.8512 26.7174 27.5 25.8333 27.5ZM25.8333 32.5C25.5037 32.5 25.1815 32.4022 24.9074 32.2191C24.6333 32.036 24.4197 31.7757 24.2935 31.4712C24.1674 31.1666 24.1344 30.8315 24.1987 30.5082C24.263 30.1849 24.4218 29.8879 24.6548 29.6548C24.8879 29.4217 25.1849 29.263 25.5082 29.1987C25.8315 29.1344 26.1666 29.1674 26.4712 29.2935C26.7757 29.4197 27.036 29.6333 27.2191 29.9074C27.4023 30.1815 27.5 30.5037 27.5 30.8333C27.5 31.2753 27.3244 31.6992 27.0118 32.0118C26.6993 32.3244 26.2753 32.5 25.8333 32.5Z" fill="white"/>
<path d="M19.167 22.5C18.6726 22.5 18.1892 22.6466 17.7781 22.9213C17.3669 23.196 17.0465 23.5865 16.8573 24.0432C16.6681 24.5001 16.6186 25.0028 16.715 25.4878C16.8115 25.9727 17.0496 26.4182 17.3992 26.7677C17.7488 27.1174 18.1943 27.3555 18.6792 27.452C19.1642 27.5484 19.6669 27.4989 20.1237 27.3097C20.5805 27.1205 20.971 26.8001 21.2457 26.3889C21.5204 25.9778 21.667 25.4944 21.667 25C21.667 24.337 21.4036 23.7011 20.9347 23.2323C20.4659 22.7634 19.8301 22.5 19.167 22.5ZM19.167 25.8333C19.0022 25.8333 18.8411 25.7845 18.704 25.6929C18.567 25.6013 18.4602 25.4712 18.3971 25.3189C18.334 25.1667 18.3175 24.9991 18.3497 24.8374C18.3818 24.6757 18.4612 24.5272 18.5777 24.4107C18.6942 24.2942 18.8427 24.2148 19.0044 24.1827C19.1661 24.1505 19.3337 24.167 19.4859 24.2301C19.6382 24.2932 19.7683 24.4 19.8599 24.537C19.9515 24.6741 20.0003 24.8352 20.0003 25C20.0003 25.221 19.9125 25.433 19.7562 25.5892C19.6 25.7455 19.388 25.8333 19.167 25.8333Z" fill="white"/>
<path d="M13.333 27.5C12.8386 27.5 12.3552 27.6466 11.9441 27.9213C11.5329 28.196 11.2125 28.5865 11.0233 29.0433C10.8341 29.5001 10.7846 30.0028 10.881 30.4878C10.9775 30.9727 11.2156 31.4182 11.5653 31.7677C11.9148 32.1174 12.3603 32.3555 12.8453 32.452C13.3303 32.5484 13.8329 32.4989 14.2898 32.3097C14.7465 32.1205 15.137 31.8001 15.4117 31.3889C15.6864 30.9778 15.833 30.4944 15.833 30C15.833 29.337 15.5696 28.7011 15.1008 28.2323C14.6319 27.7634 13.9961 27.5 13.333 27.5ZM13.333 30.8333C13.1682 30.8333 13.0071 30.7845 12.87 30.6929C12.733 30.6013 12.6262 30.4712 12.5631 30.3189C12.5 30.1667 12.4835 29.9991 12.5157 29.8374C12.5478 29.6758 12.6272 29.5272 12.7438 29.4107C12.8603 29.2942 13.0088 29.2148 13.1704 29.1827C13.3321 29.1505 13.4997 29.167 13.6519 29.2301C13.8042 29.2932 13.9343 29.4 14.0259 29.537C14.1175 29.6741 14.1663 29.8352 14.1663 30C14.1663 30.221 14.0785 30.433 13.9223 30.5892C13.766 30.7455 13.554 30.8333 13.333 30.8333Z" fill="white"/>
</svg>
